# AST/ASF file generated using VICON BodyLanguage
# -----------------------------------------------
:version 1.10
:name VICON
:units
  mass 1.0
  length 0.45
  angle deg
:documentation
   .ast/.asf automatically generated from VICON data using
   VICON BodyBuilder and BodyLanguage model FoxedUp or BRILLIANT.MOD
:root
   order TX TY TZ RX RY RZ
   axis XYZ
   position 0 0 0  
   orientation 0 0 0 
:bonedata
  begin
     id 1 
     name lhipjoint
     direction 0.567149 -0.783011 0.255413 
     length 2.28399 
     axis 0 0 0  XYZ
  end
  begin
     id 2 
     name lfemur
     direction 0.34202 -0.939693 0  
     length 7.34031  
     axis 0 0 20  XYZ
    dof rx ry rz
    limits (-160.0 20.0)
           (-70.0 70.0)
           (-60.0 70.0)
  end
  begin
     id 3 
     name ltibia
     direction 0.34202 -0.939693 0   
     length 6.9833   
     axis 0 0 20   XYZ
    dof rx
    limits (-10.0 170.0)
  end
  begin
     id 4 
     name lfoot
     direction 0.136498 -0.375025 0.91691   
     length 2.33665   
     axis -90 7.62852e-016 20   XYZ
    dof rx rz
    limits (-45.0 90.0)
           (-70.0 20.0)
  end
  begin
     id 5 
     name ltoes
     direction 1.5367e-011 -4.21617e-011 1   
     length 1.15039   
     axis -90 7.62852e-016 20   XYZ
    dof rx
    limits (-90.0 20.0)
  end
  begin
     id 6 
     name rhipjoint
     direction -0.602854 -0.758518 0.247423   
     length 2.35775  
     axis 0 0 0  XYZ 
  end
  begin
     id 7 
     name rfemur
     direction -0.34202 -0.939693 0   
     length 7.43932   
     axis 0 0 -20   XYZ
    dof rx ry rz
    limits (-160.0 20.0)
           (-70.0 70.0)
           (-70.0 60.0)
  end
  begin
     id 8 
     name rtibia
     direction -0.34202 -0.939693 0   
     length 7.11893   
     axis 0 0 -20   XYZ
    dof rx
    limits (-10.0 170.0)
 end
 begin
     id 9 
     name rfoot
     direction -0.131771 -0.362037 0.922803   
     length 2.53019  
     axis -90 -7.62852e-016 -20   XYZ
    dof rx rz
    limits (-45.0 90.0)
           (-20.0 70.0)
  end
  begin
     id 10 
     name rtoes
     direction -1.53733e-011 -4.21932e-011 1   
     length 1.24596   
     axis -90 -7.62852e-016 -20   XYZ
    dof rx
    limits (-90.0 20.0)
  end
  begin
     id 11 
     name lowerback
     direction 0.0235427 0.999023 -0.0374125   
     length 2.21768   
     axis 0 0 0   XYZ
    dof rx ry rz
    limits (-20.0 45.0)
           (-30.0 30.0)
           (-30.0 30.0)
  end
  begin
     id 12 
     name upperback
     direction 0.0302156 0.996818 -0.073759   
     length 2.20352   
     axis 0 0 0   XYZ
    dof rx ry rz
    limits (-20.0 45.0)
           (-30.0 30.0)
           (-30.0 30.0)
  end
  begin
     id 13 
     name thorax
     direction 0.0187169 0.998235 -0.0563532   
     length 2.22103   
     axis 0 0 0   XYZ
    dof rx ry rz
    limits (-20.0 45.0)
           (-30.0 30.0)
           (-30.0 30.0)
  end
  begin
     id 14 
     name lowerneck
     direction -0.119528 0.987423 0.103481   
     length 1.72948   
     axis 0 0 0   XYZ
    dof rx ry rz
    limits (-20.0 45.0)
           (-30.0 30.0)
           (-30.0 30.0)
  end
  begin
     id 15 
     name upperneck
     direction 0.248049 0.963095 -0.104496   
     length 1.74979   
     axis 0 0 0   XYZ
    dof rx ry rz
    limits (-20.0 45.0)
           (-30.0 30.0)
           (-30.0 30.0)
  end
  begin
     id 16
     name head
     direction 0.0903589 0.994284 -0.056876  
     length 1.78268  
     axis 0 0 0   XYZ
    dof rx ry rz
    limits (-20.0 45.0)
           (-30.0 30.0)
           (-30.0 30.0)
  end
  begin
     id 17 
     name lclavicle
     direction 0.946008 0.242039 -0.215608  
     length 3.80783  
     axis 0 0 0   XYZ
    dof ry rz
    limits (-20.0 10.0)
           (0.0 20.0)
  end
  begin
     id 18 
     name lhumerus
     direction 1 -4.48991e-011 -2.25695e-027   
     length 4.83125   
     axis 180 -30 -90   XYZ
    dof rx ry rz
    limits (-60.0 90.0)
           (-90.0 90.0)
           (-90.0 90.0)
  end
  begin
     id 19
     name lradius
     direction 0.999991 0.00366712 -0.00211721   
     length 3.00391   
     axis 180 -30 -90   XYZ
    dof rx
    limits (-10.0 170.0)
  end
  begin
     id 20
     name lwrist
     direction 0.999991 0.00393016 -0.00141978   
     length 1.50195   
     axis -1.00488e-014 90 90   XYZ
    dof ry
    limits (-180.0 0.0)
 end
  begin
     id 21 
     name lhand
     direction 1 -4.49123e-011 2.72098e-026   
     length 1.2717   
     axis -1.73687e-014 90 90   XYZ
    dof rx rz
    limits (-90.0 90.0)
           (-45.0 45.0)
  end
  begin
     id 22 
     name lfingers
     direction 1 -4.48678e-011 5.4479e-026   
     length 1.02528   
     axis -3.47372e-014 90 90   XYZ
    dof rx
    limits (0.0 90.0)
  end
  begin
     id 23
     name lthumb
     direction 0.707107 -6.34851e-011 0.707107   
     length 1.4721   
     axis -90 45 -1.62303e-014   XYZ
    dof rx rz
    limits (-45.0 45.0)
           (-45.0 45.0)
  end
  begin
     id 24 
     name rclavicle
     direction -0.981723 0.189447 -0.0181673   
     length 3.74989  
     axis 0 0 0   XYZ 
    dof ry rz
    limits (-10.0 20.0)
           (-20.0 0.0)
  end
  begin
     id 25 
     name rhumerus
     direction -1 -4.48985e-011 2.38206e-027  
     length 4.61118   
     axis 180 30 90   XYZ
    dof rx ry rz
    limits (-90.0 60.0)
           (-90.0 90.0)
           (-90.0 90.0)
  end
  begin
     id 26 
     name rradius
     direction -1 -4.48977e-011 7.41019e-027   
     length 2.91491   
     axis 180 30 90   XYZ
    dof rx
    limits (-10.0 170.0)
  end
  begin
     id 27 
     name rwrist
     direction -1 -4.48549e-011 1.3624e-026   
     length 1.45745   
     axis -1.00488e-014 -90 -90   XYZ
    dof ry
    limits (-180.0 0.0)
  end
  begin
     id 28
     name rhand
     direction -1 -4.49107e-011 2.72109e-026   
     length 1.30769   
     axis -1.73687e-014 -90 -90   XYZ
    dof rx rz
    limits (-90.0 90.0)
           (-45.0 45.0)
  end
  begin
     id 29
     name rfingers
     direction -1 -4.48919e-011 5.44468e-026   
     length 1.05429   
     axis -3.47372e-014 -90 -90   XYZ
    dof rx
    limits (0.0 90.0)
  end
  begin
     id 30
     name rthumb
     direction -0.707107 -6.35315e-011 0.707107   
     length 1.51376   
     axis -90 -45 1.62303e-014   XYZ
    dof rx rz
    limits (-45.0 45.0)
           (-45.0 45.0)
  end
:hierarchy
  begin
    root lhipjoint rhipjoint lowerback
    lhipjoint lfemur
    lfemur ltibia
    ltibia lfoot
    lfoot ltoes
    rhipjoint rfemur
    rfemur rtibia
    rtibia rfoot
    rfoot rtoes
    lowerback upperback
    upperback thorax
    thorax lowerneck lclavicle rclavicle
    lowerneck upperneck
    upperneck head
    lclavicle lhumerus
    lhumerus lradius
    lradius lwrist
    lwrist lhand lthumb
    lhand lfingers
    rclavicle rhumerus
    rhumerus rradius
    rradius rwrist
    rwrist rhand rthumb
    rhand rfingers
  end

#!OML:ASF X:\für Bonn\!DataBase\2005_08_11_Bastian_Final\c3d\Bastian.ASF
:FULLY-SPECIFIED
:DEGREES
16
root 2.0251 18.0592 -15.8655 540.62 -186.512 -179.725
lowerback -6.8585 -3.5678 -1.45342
upperback -0.161516 -4.57953 -1.46623
thorax 3.66393 -2.28625 -1.15497
lowerneck -5.92927 -2.77585 -1.27224
upperneck -2.66474 -3.60459 8.04201
head 0.365854 -1.73767 2.69059
rclavicle 2.04003e-014 0
rhumerus -37.7361 29.6109 -89.1028
rradius 92.6007
rwrist 3.19713
rhand -16.3442 21.348
rfingers 7.12502
rthumb 9.8681 -8.40073
lclavicle 2.04003e-014 0
lhumerus -18.0773 -15.0906 69.878
lradius 95.5193
lwrist -145.183
lhand -36.0532 11.8219
lfingers 7.12502
lthumb -9.16113 41.6029
rfemur -4.30243 0.00146524 21.1751
rtibia 42.1722
rfoot -7.46221 -1.17351
rtoes -21.1084
lfemur 4.12437 3.1579 -13.5332
ltibia 39.8079
lfoot 8.13114 -11.9473
ltoes -35.4194
17
root 1.99727 18.3911 -15.5777 540.906 -187.263 -179.695
lowerback -7.86068 -3.95714 -1.90514
upperback -0.609139 -5.03946 -1.38869
thorax 3.80279 -2.51883 -0.927691
lowerneck -5.02107 -2.68342 -1.3048
upperneck -2.12435 -3.5063 7.85244
head 0.371981 -1.69613 2.64313
rclavicle 5.06901e-015 -7.55382e-015
rhumerus -38.5156 30.1904 -89.0029
rradius 95.0642
rwrist 3.54781
rhand -15.6664 21.2076
rfingers 7.12502
rthumb 10.522 -8.50907
lclavicle 5.06901e-015 -7.55382e-015
lhumerus -18.8271 -15.523 69.1465
lradius 98.7632
lwrist -144.335
lhand -36.413 10.9788
lfingers 7.12502
lthumb -9.50832 40.7443
rfemur -3.12817 1.49743 21.9061
rtibia 40.2565
rfoot -2.71179 -2.41367
rtoes -22.6953
lfemur 4.11218 2.80635 -13.2529
ltibia 38.9636
lfoot 12.8556 -11.5325
ltoes -35.2497
18
root 1.97054 18.7201 -15.3082 541.522 -188.088 -179.488
lowerback -8.99849 -4.36613 -2.51624
upperback -1.06593 -5.4923 -1.36682
thorax 4.02162 -2.7477 -0.691411
lowerneck -4.21059 -2.60454 -1.29642
upperneck -1.63411 -3.42561 7.72387
head 0.380174 -1.6623 2.6073
rclavicle 2.47487e-014 4.37326e-015
rhumerus -39.2271 30.5879 -88.8149
rradius 97.4948
rwrist 4.29886
rhand -15.0961 21.0059
rfingers 7.12502
rthumb 11.0721 -8.68207
lclavicle 2.47487e-014 4.37326e-015
lhumerus -19.5847 -15.86 68.4478
lradius 101.977
lwrist -143.57
lhand -36.6265 10.1806
lfingers 7.12502
lthumb -9.71435 39.9366
rfemur -2.71442 2.70861 22.4089
rtibia 39.0961
rfoot 1.95469 -3.26415
rtoes -24.5935
lfemur 3.25253 2.43921 -13.229
ltibia 38.9847
lfoot 16.8269 -10.655
ltoes -33.2671
19
root 1.94432 19.038 -15.0547 542.191 -188.931 -179.275
lowerback -10.0409 -4.73713 -3.07514
upperback -1.41417 -5.88402 -1.41707
thorax 4.29157 -2.94435 -0.560484
lowerneck -3.68308 -2.59553 -1.17053
upperneck -1.15915 -3.44386 7.61937
head 0.434865 -1.6726 2.55288
rclavicle 6.1176e-014 1.23246e-014
rhumerus -39.806 30.6739 -88.6174
rradius 99.9052
rwrist 5.15053
rhand -14.8474 21.075
rfingers 7.12502
rthumb 11.312 -8.59995
lclavicle 6.1176e-014 1.23246e-014
lhumerus -20.1318 -16.2069 67.7192
lradius 105.056
lwrist -142.83
lhand -36.5327 9.39111
lfingers 7.12502
lthumb -9.62379 39.1513
rfemur -2.87652 3.56624 22.7996
rtibia 38.74
rfoot 6.35942 -3.45678
rtoes -25.4739
lfemur 1.91444 1.94772 -13.3017
ltibia 39.8119
lfoot 19.6505 -9.51098
ltoes -30.6203
20
root 1.91827 19.3524 -14.8106 542.759 -189.778 -179.073
lowerback -10.8451 -5.12249 -3.65865
upperback -1.58042 -6.28859 -1.43551
thorax 4.62994 -3.14935 -0.385548
lowerneck -3.55466 -2.58745 -1.08127
upperneck -0.756113 -3.46047 7.56583
head 0.537331 -1.67497 2.51812
rclavicle 2.88238e-015 -3.57812e-015
rhumerus -39.9903 30.5176 -88.2453
rradius 102.218
rwrist 5.78698
rhand -14.513 21.5435
rfingers 7.12502
rthumb 11.6344 -8.11347
lclavicle 2.88238e-015 -3.57812e-015
lhumerus -20.4843 -16.3609 67.0163
lradius 107.936
lwrist -142.126
lhand -36.1633 8.94492
lfingers 7.12502
lthumb -9.26737 38.7212
rfemur -3.38459 3.9151 23.073
rtibia 39.1231
rfoot 10.1745 -2.81225
rtoes -25.6483
lfemur 0.368276 1.43371 -13.4038
ltibia 41.2822
lfoot 21.3493 -8.47511
ltoes -28.725
21
root 1.89396 19.6534 -14.579 543.016 -190.606 -178.961
lowerback -11.139 -5.48403 -4.14328
upperback -1.55963 -6.69141 -1.42242
thorax 4.88138 -3.35543 -0.203254
lowerneck -3.83573 -2.57162 -1.05728
upperneck -0.32553 -3.47044 7.55497
head 0.721459 -1.66457 2.50535
rclavicle 1.18774e-014 8.34896e-015
rhumerus -39.9366 30.195 -87.799
rradius 104.472
rwrist 6.13047
rhand -14.1515 22.3285
rfingers 7.12502
rthumb 11.9831 -7.30852
lclavicle 1.18774e-014 8.34896e-015
lhumerus -20.7125 -16.2965 66.4176
lradius 110.596
lwrist -141.572
lhand -35.7449 9.17615
lfingers 7.12502
lthumb -8.8636 38.97
rfemur -3.89228 3.68332 23.328
rtibia 40.1868
rfoot 13.3166 -1.44414
rtoes -24.6751
lfemur -1.08385 0.944714 -13.4127
ltibia 43.2335
lfoot 22.2601 -7.52794
ltoes -27.3352
22
root 1.87114 19.9383 -14.357 543.005 -191.336 -178.962
lowerback -10.9854 -5.7653 -4.47516
upperback -1.43264 -7.02989 -1.41488
thorax 4.98226 -3.52986 -0.0645308
lowerneck -4.22195 -2.58298 -1.08205
upperneck 0.00420332 -3.51172 7.66733
head 0.898382 -1.66857 2.54175
rclavicle -2.81777e-014 -5.96354e-015
rhumerus -39.8768 29.7349 -87.4052
rradius 106.704
rwrist 6.12649
rhand -13.8298 23.1544
rfingers 7.12502
rthumb 12.2932 -6.46428
lclavicle -2.81777e-014 -5.96354e-015
lhumerus -20.9254 -16.1229 65.8897
lradius 112.993
lwrist -141.09
lhand -35.3827 9.96636
lfingers 7.12502
lthumb -8.51412 39.7747
rfemur -4.43135 3.15588 23.6345
rtibia 41.8452
rfoot 15.8324 0.0987607
rtoes -22.9251
lfemur -2.39361 0.604004 -13.3126
ltibia 45.517
lfoot 22.7414 -6.7007
ltoes -26.1201
23
root 1.8489 20.2143 -14.1467 542.904 -192.01 -179
lowerback -10.4714 -5.99429 -4.72788
upperback -1.3291 -7.33591 -1.38744
thorax 4.85414 -3.68725 0.0977414
lowerneck -4.43684 -2.57688 -1.26842
upperneck 0.135274 -3.51041 7.93789
head 0.989049 -1.6575 2.66431
rclavicle 4.99446e-014 7.55382e-015
rhumerus -40.0651 29.3463 -87.1102
rradius 108.958
rwrist 5.67206
rhand -13.5684 23.7831
rfingers 7.12502
rthumb 12.5452 -5.82027
lclavicle 4.99446e-014 7.55382e-015
lhumerus -21.2735 -15.9047 65.4962
lradius 115.333
lwrist -140.708
lhand -35.0172 10.4494
lfingers 7.12502
lthumb -8.16134 40.2718
rfemur -5.14189 2.43762 23.9256
rtibia 43.9837
rfoot 17.7125 1.34828
rtoes -21.6342
lfemur -3.7534 0.350983 -13.189
ltibia 48.0444
lfoot 22.8743 -5.98253
ltoes -24.989
24
root 1.82908 20.4756 -13.9487 542.737 -192.655 -179.083
lowerback -9.62201 -6.17312 -4.86656
upperback -1.25974 -7.61516 -1.36006
thorax 4.49079 -3.82858 0.246126
lowerneck -4.75935 -2.59744 -1.29519
upperneck 0.369838 -3.55744 8.03345
head 1.12621 -1.66732 2.69715
rclavicle 7.30534e-014 1.03368e-014
rhumerus -40.5179 28.908 -87.0161
rradius 111.124
rwrist 5.00541
rhand -13.1953 24.0931
rfingers 7.12502
rthumb 12.905 -5.48788
lclavicle 7.30534e-014 1.03368e-014
lhumerus -21.7637 -15.628 65.2884
lradius 117.568
lwrist -140.411
lhand -34.8883 10.3443
lfingers 7.12502
lthumb -8.03698 40.1715
rfemur -6.01235 1.42082 24.1739
rtibia 46.479
rfoot 19.2793 2.37333
rtoes -20.8975
lfemur -5.18249 0.243096 -13.032
ltibia 50.7041
lfoot 22.9883 -5.39283
ltoes -23.8131
25
root 1.81132 20.7175 -13.7606 542.454 -193.21 -179.138
lowerback -8.48539 -6.29519 -4.96005
upperback -1.17117 -7.84413 -1.36485
thorax 3.9765 -3.94352 0.382119
lowerneck -5.2491 -2.63244 -1.05085
upperneck 0.77477 -3.64536 7.81498
head 1.33471 -1.69345 2.57255
rclavicle -1.03567e-013 -9.54166e-015
rhumerus -41.1862 28.4234 -87.0921
rradius 113.148
rwrist 4.26502
rhand -12.88 23.9766
rfingers 7.12502
rthumb 13.2088 -5.58497
lclavicle -1.03567e-013 -9.54166e-015
lhumerus -22.2905 -15.3001 65.1259
lradius 119.536
lwrist -140.12
lhand -35.1513 10.2766
lfingers 7.12502
lthumb -8.29079 40.0939
rfemur -6.89815 0.223511 24.2934
rtibia 49.1832
rfoot 20.7789 2.68067
rtoes -18.3974
lfemur -6.53065 0.314823 -12.9214
ltibia 53.3755
lfoot 23.0229 -4.94032
ltoes -23.2184
26
root 1.79692 20.951 -13.5739 542.05 -193.669 -179.238
lowerback -7.06941 -6.35519 -4.95998
upperback -1.08809 -8.02114 -1.33929
thorax 3.29062 -4.02976 0.5457
lowerneck -5.59215 -2.68404 -0.92231
upperneck 0.999889 -3.73788 7.68247
head 1.46533 -1.7286 2.49928
rclavicle -2.23136e-014 0
rhumerus -41.9885 27.8755 -87.1854
rradius 114.942
rwrist 3.48546
rhand -12.6842 23.7187
rfingers 7.12502
rthumb 13.3976 -5.8305
lclavicle -2.23136e-014 0
lhumerus -23.0188 -15.1221 65.2155
lradius 120.895
lwrist -139.632
lhand -35.0532 10.6315
lfingers 7.12502
lthumb -8.19615 40.4526
rfemur -7.70623 -0.971773 24.4073
rtibia 51.9449
rfoot 22.0691 2.16567
rtoes -14.4269
lfemur -7.73298 0.503232 -12.799
ltibia 55.9477
lfoot 22.9677 -4.50749
ltoes -23.2797
27
root 1.78399 21.18 -13.3862 541.396 -194.016 -179.358
lowerback -5.36725 -6.34371 -4.89755
upperback -0.907936 -8.12152 -1.3382
thorax 2.52984 -4.07674 0.692346
lowerneck -5.77017 -2.72432 -0.861801
upperneck 0.96674 -3.79713 7.71676
head 1.48848 -1.75426 2.49621
rclavicle 3.7123e-014 5.56597e-015
rhumerus -42.9211 27.3232 -87.4219
rradius 116.503
rwrist 2.95308
rhand -12.9146 23.2353
rfingers 7.12502
rthumb 13.1755 -6.32837
lclavicle 3.7123e-014 5.56597e-015
lhumerus -23.829 -15.1896 65.4043
lradius 121.743
lwrist -138.966
lhand -34.2551 11.0513
lfingers 7.12502
lthumb -7.42584 40.9009
rfemur -8.23849 -2.25419 24.4483
rtibia 54.6308
rfoot 22.8175 1.25894
rtoes -10.6788
lfemur -8.58744 0.814732 -12.688
ltibia 58.3292
lfoot 22.9449 -4.03885
ltoes -23.6028
28
root 1.77434 21.3945 -13.2028 540.539 -194.3 -179.493
lowerback -3.46073 -6.2977 -4.81501
upperback -0.61144 -8.1823 -1.33229
thorax 1.76972 -4.1038 0.856286
lowerneck -6.04134 -2.77006 -0.938075
upperneck 0.917229 -3.85931 7.90511
head 1.53154 -1.77756 2.56878
rclavicle 4.23908e-014 2.70347e-014
rhumerus -43.803 26.7844 -87.6732
rradius 117.735
rwrist 2.59484
rhand -13.3543 22.7313
rfingers 7.12502
rthumb 12.7516 -6.85934
lclavicle 4.23908e-014 2.70347e-014
lhumerus -24.7308 -15.0652 65.7617
lradius 122.692
lwrist -138.418
lhand -33.6371 11.3229
lfingers 7.12502
lthumb -6.82925 41.1928
rfemur -8.55457 -3.70616 24.3606
rtibia 57.1958
rfoot 22.8915 0.458161
rtoes -9.25506
lfemur -9.20902 1.15579 -12.6017
ltibia 60.5768
lfoot 22.8983 -3.61855
ltoes -24.2851
